<svg width="64" height="64" xmlns="http://www.w3.org/2000/svg">
 <g>
  <title>Layer 1</title>
  <rect fill="#cccccc" x="5.2158" y="1.86705" width="52.25796" height="60.02002" id="svg_1" rx="10" stroke="#000"/>
  <path fill="#aaff56" stroke="#000" opacity="undefined" d="m10.45266,8.29258c0,-1.35845 1.14155,-2.5 2.5,-2.5l38.22572,0c1.35845,0 2.5,1.14155 2.5,2.5l0,5.32256c0,1.35845 -1.14155,2.5 -2.5,2.5l-38.22572,0c-1.35845,0 -2.5,-1.14155 -2.5,-2.5l0,-5.32256z" id="svg_2"/>
  <g stroke="null" id="svg_4">
   <path stroke="#000" fill="#ffffff" opacity="undefined" d="m12.04944,50.98203c0,-1.08676 1.2759,-2 2.79422,-2l2.96041,0c1.51833,0 2.79422,0.91324 2.79422,2l0,4.24728c0,1.08676 -1.2759,2 -2.79422,2l-2.96041,0c-1.51833,0 -2.79422,-0.91324 -2.79422,-2l0,-4.24728z" id="svg_35"/>
   <path stroke="#000" fill="#ffffff" opacity="undefined" d="m27.85549,50.852c0,-1.08676 1.27591,-2 2.79422,-2l2.96041,0c1.51833,0 2.79422,0.91324 2.79422,2l0,4.24728c0,1.08676 -1.2759,2 -2.79422,2l-2.96041,0c-1.51831,0 -2.79422,-0.91324 -2.79422,-2l0,-4.24728z" id="svg_36"/>
   <path stroke="#000" fill="#ff5656" opacity="undefined" d="m43.29819,50.852c0,-1.08676 1.27591,-2 2.79422,-2l2.96041,0c1.51833,0 2.79422,0.91324 2.79422,2l0,4.24728c0,1.08676 -1.2759,2 -2.79422,2l-2.96041,0c-1.51831,0 -2.79422,-0.91324 -2.79422,-2l0,-4.24728z" id="svg_37"/>
   <path stroke="#000" fill="#ffffff" opacity="undefined" d="m11.86776,40.70897c0,-1.08676 1.2759,-2 2.79422,-2l2.96041,0c1.51833,0 2.79422,0.91324 2.79422,2l0,4.24728c0,1.08676 -1.2759,2 -2.79422,2l-2.96041,0c-1.51833,0 -2.79422,-0.91324 -2.79422,-2l0,-4.24728z" id="svg_42"/>
   <path stroke="#000" fill="#ffffff" opacity="undefined" d="m27.85549,40.57893c0,-1.08676 1.27591,-2 2.79422,-2l2.96041,0c1.51833,0 2.79422,0.91324 2.79422,2l0,4.24728c0,1.08676 -1.2759,2 -2.79422,2l-2.96041,0c-1.51831,0 -2.79422,-0.91324 -2.79422,-2l0,-4.24728z" id="svg_43"/>
   <path stroke="#000" fill="#56aaff" opacity="undefined" d="m43.2982,40.57893c0,-1.08676 1.27591,-2 2.79422,-2l2.96041,0c1.51833,0 2.79422,0.91324 2.79422,2l0,4.24728c0,1.08676 -1.2759,2 -2.79422,2l-2.96041,0c-1.51831,0 -2.79422,-0.91324 -2.79422,-2l0,-4.24728z" id="svg_44"/>
   <path stroke="#000" fill="#ffffff" opacity="undefined" d="m12.04944,30.82602c0,-1.08676 1.2759,-2 2.79422,-2l2.96041,0c1.51833,0 2.79422,0.91324 2.79422,2l0,4.24728c0,1.08676 -1.2759,2 -2.79422,2l-2.96041,0c-1.51833,0 -2.79422,-0.91324 -2.79422,-2l0,-4.24728z" id="svg_47"/>
   <path stroke="#000" fill="#ffffff" opacity="undefined" d="m27.67381,30.69598c0,-1.08676 1.27591,-2 2.79422,-2l2.96041,0c1.51833,0 2.79422,0.91324 2.79422,2l0,4.24728c0,1.08676 -1.2759,2 -2.79422,2l-2.96041,0c-1.51831,0 -2.79422,-0.91324 -2.79422,-2l0,-4.24728z" id="svg_48"/>
   <path stroke="#000" fill="#56aaff" opacity="undefined" d="m43.29819,30.69598c0,-1.08676 1.27591,-2 2.79422,-2l2.96041,0c1.51833,0 2.79422,0.91324 2.79422,2l0,4.24728c0,1.08676 -1.2759,2 -2.79422,2l-2.96041,0c-1.51831,0 -2.79422,-0.91324 -2.79422,-2l0,-4.24728z" id="svg_49"/>
   <path stroke="#000" fill="#56aaff" opacity="undefined" d="m11.86776,20.94307c0,-1.08676 1.2759,-2 2.79422,-2l2.96041,0c1.51833,0 2.79422,0.91324 2.79422,2l0,4.24728c0,1.08676 -1.2759,2 -2.79422,2l-2.96041,0c-1.51833,0 -2.79422,-0.91324 -2.79422,-2l0,-4.24728z" id="svg_52"/>
   <path stroke="#000" fill="#56aaff" opacity="undefined" d="m27.85549,20.81303c0,-1.08676 1.27591,-2 2.79422,-2l2.96041,0c1.51833,0 2.79422,0.91324 2.79422,2l0,4.24728c0,1.08676 -1.2759,2 -2.79422,2l-2.96041,0c-1.51831,0 -2.79422,-0.91324 -2.79422,-2l0,-4.24728z" id="svg_53"/>
   <path stroke="#000" fill="#56aaff" opacity="undefined" d="m43.11651,20.81303c0,-1.08676 1.27591,-2 2.79422,-2l2.96041,0c1.51833,0 2.79422,0.91324 2.79422,2l0,4.24728c0,1.08676 -1.2759,2 -2.79422,2l-2.96041,0c-1.51831,0 -2.79422,-0.91324 -2.79422,-2l0,-4.24728z" id="svg_54"/>
  </g>
 </g>

</svg>