<svg width="64" height="64" xmlns="http://www.w3.org/2000/svg">

 <g>
  <title>Layer 1</title>
  <rect fill="#dd6c70" stroke="#000" x="66.2233" y="13.63107" width="58.73787" height="51.21359" id="svg_33"/>
  <rect fill="#ffff56" x="8.2136" y="2.70874" width="53.76214" height="49.75728" id="svg_35" stroke="#000"/>
  <path id="svg_55" d="m2.30436,9.47711l55.09709,0l0,49.39321l-55.09709,0l0,-49.39321z" opacity="undefined" stroke="#000" fill="#ffff56"/>
  <g stroke="null" id="svg_6">
   <polygon stroke="#000" points="40.795960664749146,19.153392374515533 35.72239422798157,32.43355709314346 " fill="#0a0" id="svg_1"/>
   <polygon stroke="#000" points="40.795960664749146,19.153392374515533 32.09842038154602,32.43355709314346 40.795960664749146,37.90185695886612 " fill="#0b0" id="svg_2"/>
   <polygon stroke="#000" points="40.795960664749146,19.153392374515533 49.49350094795227,32.43355709314346 40.795960664749146,37.90185695886612 " fill="#090" id="svg_3"/>
   <circle stroke="null" cx="40.79596" cy="19.15339" r="3.26158" fill="0" id="svg_4"/>
   <circle stroke="null" cx="40.79596" cy="19.15339" r="2.89918" fill="#0b0" id="svg_5"/>
  </g>
  <g stroke="null" id="svg_12">
   <polygon stroke="#000" points="20.438457667827606,24.89335560798645 12.129619777202606,45.07195591926575 " fill="#0a0" id="svg_7"/>
   <polygon stroke="#000" points="20.438457667827606,24.89335560798645 6.194736659526825,45.07195591926575 20.438457667827606,53.38079380989075 " fill="#0b0" id="svg_8"/>
   <polygon stroke="#000" points="20.438457667827606,24.89335560798645 34.68217295408249,45.07195591926575 20.438457667827606,53.38079380989075 " fill="#090" id="svg_9"/>
   <circle stroke="null" cx="20.43846" cy="24.89335" r="5.34139" fill="0" id="svg_10"/>
   <circle stroke="null" cx="20.43846" cy="24.89335" r="4.7479" fill="#0b0" id="svg_11"/>
  </g>
 </g>
</svg>