<svg width="64" height="64" xmlns="http://www.w3.org/2000/svg">
 <g>
  <title>Layer 1</title>
  <text fill="#ffff56" x="49.23183" y="30.20069" id="svg_5" stroke-width="0" font-size="30" font-family="Noto Sans JP" text-anchor="start" xml:space="preserve" stroke="null">*</text>
  <text fill="#ff0000" stroke="#00007f" x="36.5655" y="29.45724" id="svg_33" stroke-width="0" font-size="30" font-family="Noto Sans JP" text-anchor="start" xml:space="preserve">g</text>
  <g stroke="null" id="svg_1">
   <ellipse stroke="null" fill="#0000bc" cx="10.33615" cy="49.69263" id="svg_2" rx="4.89264" ry="4.89264"/>
   <ellipse stroke="null" fill="#0000bc" cx="28.84587" cy="49.24118" id="svg_14" rx="4.89264" ry="4.89264"/>
   <line stroke="null" fill="none" x1="10.65704" y1="50.30932" x2="49.48495" y2="50.30932" id="svg_19"/>
   <line stroke="#00007f" fill="none" x1="10.20558" y1="49.85786" x2="27.36357" y2="49.85786" id="svg_20"/>
   <ellipse stroke="null" fill="#0000bc" cx="10.33615" cy="32.98873" id="svg_21" rx="4.89264" ry="4.89264"/>
   <ellipse stroke="null" fill="#0000bc" cx="28.84587" cy="32.53727" id="svg_22" rx="4.89264" ry="4.89264"/>
   <line stroke="null" fill="none" x1="10.65704" y1="33.60543" x2="49.48495" y2="33.60543" id="svg_23"/>
   <line stroke="#00007f" fill="none" x1="10.20558" y1="33.15397" x2="27.36357" y2="33.15397" id="svg_24"/>
   <ellipse stroke="null" fill="#0000bc" cx="10.33615" cy="15.83337" id="svg_25" rx="4.89264" ry="4.89264"/>
   <ellipse stroke="null" fill="#0000bc" cx="28.84587" cy="15.38191" id="svg_26" rx="4.89264" ry="4.89264"/>
   <line stroke="null" fill="none" x1="10.65704" y1="16.45007" x2="49.48495" y2="16.45007" id="svg_27"/>
   <line stroke="#00007f" fill="none" x1="10.20558" y1="15.99861" x2="27.36357" y2="15.99861" id="svg_28"/>
   <line stroke="#00007f" fill="none" x1="10.20558" y1="49.40641" x2="10.20558" y2="14.61786" id="svg_29"/>
   <line stroke="#00007f" fill="none" x1="28.26386" y1="14.64424" x2="28.71531" y2="48.95495" id="svg_30"/>
   <line stroke="#00007f" fill="none" x1="10.65704" y1="35.86271" x2="26.45803" y2="48.05204" id="svg_31"/>
   <line stroke="#00007f" fill="none" x1="11.55997" y1="29.99377" x2="26.90949" y2="18.25589" id="svg_32"/>
  </g>
  <path transform="rotate(90 44.3564 48.1634)" id="svg_3" d="m43.47321,51.87254l3.08037,-2.29091l-5.95574,0l-5.95573,0l0,-1.41818l0,-1.41818l5.88741,0c3.23807,0 5.8874,-0.07188 5.8874,-0.15973c0,-0.08785 -1.28907,-1.11876 -2.86459,-2.29091l-2.86459,-2.13118l2.64776,0l2.64775,0l4.04372,3.00287l4.04371,3.00287l-4.05147,2.99713l-4.05147,2.99713l-2.78745,0l-2.78745,0l3.08038,-2.29091l0,0z" stroke-width="0" stroke="#00007f" fill="#ff0000"/>
 </g>

</svg>