<svg width="64" height="64" xmlns="http://www.w3.org/2000/svg">

 <g>
  <title>Layer 1</title>
  <ellipse ry="3.74998" rx="3.74998" id="svg_2" cy="47.02906" cx="14.72982" stroke="null" fill="#0000bc"/>
  <text stroke="null" xml:space="preserve" text-anchor="start" font-family="Noto Sans JP" font-size="30" stroke-width="0" id="svg_5" y="30.20069" x="49.23183" fill="#ffff56">*</text>
  <g id="svg_9">
   <path transform="rotate(180 43.1596 25.7284)" stroke="null" id="svg_1" fill="#ff891a" data-name="Up" d="m48.21377,22.45728l-4.59053,-8.45834a0.65579,1.20833 0 0 0 -0.92729,0l-4.59053,8.45834a0.65579,1.20833 0 0 0 0.46364,2.06263l1.96737,0l0,12.08335a0.65579,1.20833 0 0 0 0.65579,1.20833l3.93474,0a0.65579,1.20833 0 0 0 0.65579,-1.20833l0,-12.08335l1.96737,0a0.65579,1.20833 0 0 0 0.46364,-2.06263z"/>
   <path transform="rotate(180 44.8897 24.6903)" stroke="null" id="svg_3" fill="#ff0000" data-name="Up" d="m49.94387,21.41921l-4.59053,-8.45834a0.65579,1.20833 0 0 0 -0.92728,0l-4.59053,8.45834a0.65579,1.20833 0 0 0 0.46364,2.06263l1.96737,0l0,12.08335a0.65579,1.20833 0 0 0 0.65579,1.20833l3.93474,0a0.65579,1.20833 0 0 0 0.65579,-1.20833l0,-12.08335l1.96736,0a0.65579,1.20833 0 0 0 0.46365,-2.06263z"/>
   <path transform="rotate(180 43.1596 25.7284)" stroke="null" id="svg_4" fill="#ff891a" data-name="Up" d="m48.21377,22.45728l-4.59053,-8.45834a0.65579,1.20833 0 0 0 -0.92728,0l-4.59053,8.45834a0.65579,1.20833 0 0 0 0.46364,2.06263l1.96737,0l0,12.08335a0.65579,1.20833 0 0 0 0.65579,1.20833l3.93474,0a0.65579,1.20833 0 0 0 0.65579,-1.20833l0,-12.08335l1.96736,0a0.65579,1.20833 0 0 0 0.46365,-2.06263z"/>
  </g>
  <g id="svg_13">
   <path transform="rotate(180 14.7859 25.7284)" stroke="null" id="svg_10" fill="#ff891a" data-name="Up" d="m19.84006,22.45728l-4.59052,-8.45834a0.65579,1.20833 0 0 0 -0.92729,0l-4.59052,8.45834a0.65579,1.20833 0 0 0 0.46364,2.06263l1.96737,0l0,12.08334a0.65579,1.20833 0 0 0 0.65579,1.20834l3.93473,0a0.65579,1.20833 0 0 0 0.65579,-1.20834l0,-12.08334l1.96737,0a0.65579,1.20833 0 0 0 0.46364,-2.06263z"/>
   <path transform="rotate(180 16.516 24.6903)" stroke="null" id="svg_11" fill="#ff0000" data-name="Up" d="m21.57017,21.41921l-4.59053,-8.45834a0.65579,1.20833 0 0 0 -0.92728,0l-4.59053,8.45834a0.65579,1.20833 0 0 0 0.46364,2.06263l1.96737,0l0,12.08335a0.65579,1.20833 0 0 0 0.65579,1.20833l3.93474,0a0.65579,1.20833 0 0 0 0.65579,-1.20833l0,-12.08335l1.96736,0a0.65579,1.20833 0 0 0 0.46365,-2.06263z"/>
   <path transform="rotate(180 14.7859 25.7284)" stroke="null" id="svg_12" fill="#ff891a" data-name="Up" d="m19.84007,22.45728l-4.59053,-8.45834a0.65579,1.20833 0 0 0 -0.92728,0l-4.59053,8.45834a0.65579,1.20833 0 0 0 0.46364,2.06263l1.96737,0l0,12.08335a0.65579,1.20833 0 0 0 0.65579,1.20833l3.93474,0a0.65579,1.20833 0 0 0 0.65579,-1.20833l0,-12.08335l1.96736,0a0.65579,1.20833 0 0 0 0.46365,-2.06263z"/>
  </g>
  <ellipse ry="3.74998" rx="3.74998" id="svg_14" cy="47.02906" cx="44.14159" stroke="null" fill="#0000bc"/>
  <g id="svg_18">
   <path transform="rotate(180 28.9728 25.7284)" stroke="null" id="svg_15" fill="#ff891a" data-name="Up" d="m34.02691,22.45728l-4.59052,-8.45834a0.65579,1.20833 0 0 0 -0.92729,0l-4.59052,8.45834a0.65579,1.20833 0 0 0 0.46364,2.06263l1.96737,0l0,12.08334a0.65579,1.20833 0 0 0 0.65579,1.20834l3.93473,0a0.65579,1.20833 0 0 0 0.65579,-1.20834l0,-12.08334l1.96737,0a0.65579,1.20833 0 0 0 0.46364,-2.06263z"/>
   <path transform="rotate(180 30.7029 24.6903)" stroke="null" id="svg_16" fill="#ff0000" data-name="Up" d="m35.75702,21.41921l-4.59053,-8.45834a0.65579,1.20833 0 0 0 -0.92728,0l-4.59053,8.45834a0.65579,1.20833 0 0 0 0.46364,2.06263l1.96737,0l0,12.08335a0.65579,1.20833 0 0 0 0.65579,1.20833l3.93474,0a0.65579,1.20833 0 0 0 0.65579,-1.20833l0,-12.08335l1.96736,0a0.65579,1.20833 0 0 0 0.46365,-2.06263z"/>
   <path transform="rotate(180 28.9728 25.7284)" stroke="null" id="svg_17" fill="#ff891a" data-name="Up" d="m34.02692,22.45728l-4.59053,-8.45834a0.65579,1.20833 0 0 0 -0.92728,0l-4.59053,8.45834a0.65579,1.20833 0 0 0 0.46364,2.06263l1.96737,0l0,12.08335a0.65579,1.20833 0 0 0 0.65579,1.20833l3.93474,0a0.65579,1.20833 0 0 0 0.65579,-1.20833l0,-12.08335l1.96736,0a0.65579,1.20833 0 0 0 0.46365,-2.06263z"/>
  </g>
  <line id="svg_19" y2="47.50173" x2="44.73557" y1="47.50173" x1="14.97578" stroke="null" fill="none"/>
  <line stroke="#00007f" id="svg_20" y2="47.15571" x2="44.38955" y1="47.15571" x1="14.62975" fill="none"/>
 </g>
</svg>