<svg width="64" height="64" xmlns="http://www.w3.org/2000/svg">
 <g id="Layer_1">
  <title>Layer 1</title>
  <g stroke="null" id="svg_9">
   <rect stroke="#000" id="svg_35" height="49.75728" width="52.33481" y="4.52692" x="8.03986" fill="#ffff56"/>
   <path stroke="#000" fill="#ffff56" opacity="undefined" d="m1.66944,11.29529l53.63432,0l0,49.39321l-53.63432,0l0,-49.39321z" id="svg_55"/>
  </g>
  <ellipse stroke="#2927a3" fill="#fff" cx="26.4582" cy="26.2456" id="svg_5" rx="6.88411" ry="6.64022"/>
  <path stroke="#2927a3" id="svg_1" d="m16.45829,53.20822c-3.80337,0 -6.88411,-2.97159 -6.88411,-6.64022c0,-3.66863 3.08073,-6.64022 6.88411,-6.64022c3.80337,0 6.88411,2.97159 6.88411,6.64022c0,3.66863 -3.08073,6.64022 -6.88411,6.64022z" opacity="undefined" fill="#fff"/>
  <path id="svg_2" d="m37.42585,52.56306c-3.80338,0 -6.88411,-2.97159 -6.88411,-6.64021c0,-3.66863 3.08073,-6.64022 6.88411,-6.64022c3.80337,0 6.8841,2.97159 6.8841,6.64022c0,3.66862 -3.08073,6.64021 -6.8841,6.64021z" opacity="undefined" stroke="#2927a3" fill="#fff"/>
 </g>

</svg>