<svg width="64" height="64" xmlns="http://www.w3.org/2000/svg">
 <g id="Layer_1">
  <title>Layer 1</title>
  <rect id="svg_1" height="8.29268" width="20.48781" y="8.82454" x="6.01315" stroke="#000" fill="#0fff43"/>
  <rect id="svg_4" height="8.29268" width="20.48781" y="27.11722" x="6.01315" stroke="#000" fill="#0f83ff"/>
  <rect id="svg_6" height="8.29268" width="20.48781" y="45.76569" x="6.13332" stroke="#000" fill="#41c6c6"/>
  <line stroke="#000" id="svg_7" y2="30.77576" x2="37.14433" y1="30.77576" x1="26.74485" fill="none"/>
  <line stroke="#000" id="svg_8" y2="31.53058" x2="38.17036" y1="27.38424" x1="35.24353" fill="none"/>
  <line id="svg_9" y2="33.79086" x2="35.07314" y1="30.78833" x1="38.07567" stroke="#000" fill="none"/>
  <rect stroke="#000" id="svg_10" height="8.29268" width="20.48781" y="27.56101" x="38.46715" fill="#dd6c70"/>
  <line id="svg_13" y2="12.53437" x2="49.58361" y1="12.53437" x1="26.96456" stroke="#000" fill="none"/>
  <line stroke="#000" id="svg_14" y2="49.71652" x2="49.22794" y1="49.71652" x1="26.76615" fill="none"/>
  <line id="svg_16" y2="27.42914" x2="48.93651" y1="12.43678" x1="48.93651" stroke="#000" fill="none"/>
  <line stroke="#000" id="svg_17" y2="36.27879" x2="49.2206" y1="49.64718" x1="49.2206" fill="none"/>
  <line id="svg_20" y2="38.98341" x2="52.16208" y1="36.30895" x1="49.48763" stroke="#000" fill="none"/>
  <line stroke="#000" id="svg_21" y2="38.93295" x2="46.30398" y1="36.01633" x1="49.2206" fill="none"/>
  <line id="svg_24" y2="24.671" x2="45.95936" y1="27.47315" x1="48.76151" stroke="#000" fill="none"/>
  <line id="svg_26" y2="24.66248" x2="51.86334" y1="27.53375" x1="48.99207" stroke="#000" fill="none"/>
  <text xml:space="preserve" text-anchor="start" font-family="'Crimson Pro'" font-size="6" stroke-width="0" id="svg_27" y="14.96602" x="10.88349" stroke="#000" fill="#000000">LC1</text>
  <text style="cursor: move;" xml:space="preserve" text-anchor="start" font-family="'Crimson Pro'" font-size="6" stroke-width="0" id="svg_28" y="33.29126" x="10.51942" stroke="#000" fill="#000000">LC2</text>
  <text xml:space="preserve" text-anchor="start" font-family="'Crimson Pro'" font-size="6" stroke-width="0" id="svg_29" y="51.98058" x="10.51942" stroke="#000" fill="#000000">LC3</text>
  <text xml:space="preserve" text-anchor="start" font-family="'Crimson Pro'" font-size="6" stroke-width="0" id="svg_30" y="33.89806" x="43.8932" stroke="#000" fill="#000000">CB1</text>
 </g>
</svg>