<svg width="64" height="64" xmlns="http://www.w3.org/2000/svg">

 <g>
  <title>Layer 1</title>
  <path transform="rotate(180 30.0108 25.7284)" stroke="null" id="svg_1" fill="#ff891a" data-name="Up" d="m35.06498,22.45728l-4.59053,-8.45834a0.65579,1.20833 0 0 0 -0.92729,0l-4.59053,8.45834a0.65579,1.20833 0 0 0 0.46364,2.06263l1.96737,0l0,12.08335a0.65579,1.20833 0 0 0 0.65579,1.20833l3.93474,0a0.65579,1.20833 0 0 0 0.65579,-1.20833l0,-12.08335l1.96737,0a0.65579,1.20833 0 0 0 0.46364,-2.06263z"/>
  <ellipse ry="3.74998" rx="3.74998" id="svg_2" cy="43.22283" cx="30.30076" stroke="null" fill="#0000bc"/>
  <path transform="rotate(180 31.7409 24.6903)" stroke="null" id="svg_3" fill="#ff0000" data-name="Up" d="m36.79509,21.41921l-4.59053,-8.45834a0.65579,1.20833 0 0 0 -0.92728,0l-4.59053,8.45834a0.65579,1.20833 0 0 0 0.46364,2.06263l1.96737,0l0,12.08335a0.65579,1.20833 0 0 0 0.65579,1.20833l3.93474,0a0.65579,1.20833 0 0 0 0.65579,-1.20833l0,-12.08335l1.96736,0a0.65579,1.20833 0 0 0 0.46365,-2.06263z"/>
  <path transform="rotate(180 30.0108 25.7284)" stroke="null" id="svg_4" fill="#ff891a" data-name="Up" d="m35.06498,22.45728l-4.59053,-8.45834a0.65579,1.20833 0 0 0 -0.92728,0l-4.59053,8.45834a0.65579,1.20833 0 0 0 0.46364,2.06263l1.96737,0l0,12.08335a0.65579,1.20833 0 0 0 0.65579,1.20833l3.93474,0a0.65579,1.20833 0 0 0 0.65579,-1.20833l0,-12.08335l1.96736,0a0.65579,1.20833 0 0 0 0.46365,-2.06263z"/>
  <text stroke="null" xml:space="preserve" text-anchor="start" font-family="Noto Sans JP" font-size="30" stroke-width="0" id="svg_5" y="30.20069" x="36.08304" fill="#ffff56">*</text>
 </g>
</svg>