<svg width="64" height="64" xmlns="http://www.w3.org/2000/svg">
 <g>
  <title>Layer 1</title>
  <path id="svg_3" d="m14.29954,20.67129c-0.00003,-0.01843 -0.01232,-0.03336 -0.02749,-0.03339l0,-0.00001l-0.08426,0c-0.00347,-0.01354 -0.01382,-0.02344 -0.02616,-0.02346l-0.01976,0c-0.01518,0.00002 -0.02748,0.01496 -0.0275,0.03339l0,0.11842c0.00003,0.01841 0.01233,0.03334 0.0275,0.03338l0.13019,0c0.01516,-0.00003 0.02746,-0.01497 0.02749,-0.03338l0,-0.09495l-0.00001,0zm-0.15767,-0.04017l0.01976,0c0.00719,-0.00003 0.01318,0.00696 0.01363,0.01566l0.0004,0.00782l0.09639,0c0.00751,0.00002 0.01373,0.00756 0.01374,0.01669l0,0.00413c-0.00406,-0.00288 -0.00872,-0.00465 -0.01375,-0.00466l-0.13019,0c-0.00503,0.00001 -0.00969,0.00179 -0.01375,0.00467l0,-0.02762c0.00002,-0.00913 0.00624,-0.01668 0.01376,-0.01669l0.00001,0zm0.13018,0.15181l-0.13018,0c-0.00751,-0.00002 -0.01373,-0.00758 -0.01376,-0.01669l0,-0.06208l0.00001,0c0.00001,-0.00914 0.00623,-0.01668 0.01375,-0.0167l0.13019,0c0.00751,0.00002 0.01369,0.00752 0.01375,0.01662l0,0.06216c-0.00003,0.00914 -0.00624,0.01668 -0.01376,0.0167l0,-0.00001z" stroke-width="0" stroke="#0000ff" fill="#ffff56"/>
  <g id="svg_15" stroke="null">
   <path id="svg_8" d="m5.3804,25.55903c0,-3.77524 3.15369,-6.94773 6.90658,-6.94773l39.26508,0c3.75288,0 6.90658,3.17248 6.90658,6.94773l0,12.909c0,3.77524 -3.15369,6.94773 -6.90658,6.94773l-39.26508,0c-3.75288,0 -6.90658,-3.17248 -6.90658,-6.94773l0,-12.909z" opacity="undefined" stroke-width="0.5" fill="none" stroke="#000000"/>
   <path id="svg_9" d="m5.3804,24.61551l52.65364,0" opacity="undefined" stroke-width="0.5" fill="none" stroke="#000000"/>
   <line id="svg_10" y2="31.90631" x2="58.2472" y1="31.90631" x1="5.80673" stroke-width="0.5" fill="none" stroke="#000000"/>
   <line id="svg_11" y2="38.98269" x2="57.8348" y1="38.98269" x1="5.59356" stroke-width="0.5" fill="none" stroke="#000000"/>
   <line id="svg_12" y2="45.42348" x2="18.3835" y1="18.61131" x1="18.3835" stroke-width="0.5" fill="none" stroke="#000000"/>
   <line id="svg_13" y2="45.65163" x2="32.0261" y1="18.82575" x1="32.0261" stroke-width="0.5" fill="none" stroke="#000000"/>
   <line id="svg_14" y2="45.51832" x2="46.09503" y1="18.82575" x1="46.09503" stroke-width="0.5" fill="none" stroke="#000000"/>
  </g>
  <circle id="svg_1" stroke-width="4" stroke="#333333" fill="#3498db" r="10" cy="32" cx="32"/>
  <circle id="svg_2" opacity="0.6" fill="#ffffff" r="2.5" cy="27" cx="37"/>
 </g>

</svg>