<svg width="64" height="64" xmlns="http://www.w3.org/2000/svg">
 <g>
  <title>Layer 1</title>
  <rect fill="#dd6c70" stroke="#000" x="66.2233" y="13.63107" width="58.73787" height="51.21359" id="svg_33"/>
  <rect fill="#ffff56" x="8.2136" y="2.70874" width="53.76214" height="49.75728" id="svg_35" stroke="#000"/>
  <path id="svg_55" d="m1.66944,9.47711l55.09709,0l0,49.39321l-55.09709,0l0,-49.39321z" opacity="undefined" stroke="#000" fill="#ffff56"/>
 </g>

 <g>
  <title>Layer 2</title>
  <rect id="svg_2" height="1.28484" width="3.2121" y="47.7393" x="164.33864" stroke="#000000" fill="#B7B5DF"/>
  <line stroke="#000000" id="svg_6" y2="35.5443" x2="32.67739" y1="35.5443" x1="19.51283" fill="none"/>
  <line id="svg_7" y2="35.29114" x2="33.18372" y1="32.75949" x1="30.65208" stroke="#000000" fill="none"/>
  <line id="svg_8" y2="35.6515" x2="33.3639" y1="33.11985" x1="30.83226" stroke="#000000" fill="none"/>
  <line id="svg_10" y2="37.58559" x2="31.09909" y1="35.42342" x1="33.26126" stroke="#000000" fill="none"/>
  <path opacity="0.55" id="svg_13" d="m13.26126,38.66667c-1.79185,0 -3.24324,-1.4514 -3.24324,-3.24324c0,-1.79185 1.4514,-3.24324 3.24324,-3.24324c1.79185,0 3.24324,1.4514 3.24324,3.24324c0,1.79185 -1.4514,3.24324 -3.24324,3.24324z" stroke="#000000" fill="#4e49ed"/>
  <path id="svg_15" d="m40.1081,38.48649c-1.79184,0 -3.24324,-1.4514 -3.24324,-3.24325c0,-1.79184 1.4514,-3.24324 3.24324,-3.24324c1.79185,0 3.24325,1.4514 3.24325,3.24324c0,1.79185 -1.4514,3.24325 -3.24325,3.24325z" opacity="undefined" stroke="#000000" fill="#4e49ed"/>
  <text xml:space="preserve" text-anchor="start" font-family="Arial" font-size="14" stroke-width="0" id="svg_16" y="26.23423" x="17.04504" stroke="#000000" fill="#000000">Dx</text>
 </g>
</svg>